<?xml version="1.0" encoding="UTF-8"?>
<!DOCTYPE svg PUBLIC "-//W3C//DTD SVG 1.1//EN" "http://www.w3.org/Graphics/SVG/1.1/DTD/svg11.dtd">
<svg xmlns="http://www.w3.org/2000/svg" version="1.1" width="3840px" height="2160px" style="shape-rendering:geometricPrecision; text-rendering:geometricPrecision; image-rendering:optimizeQuality; fill-rule:evenodd; clip-rule:evenodd" xmlns:xlink="http://www.w3.org/1999/xlink">
<g><path style="opacity:1" fill="#e5004b" d="M 892.5,52.5 C 1577.17,52.5 2261.83,52.5 2946.5,52.5C 2946.5,737.167 2946.5,1421.83 2946.5,2106.5C 2261.83,2106.5 1577.17,2106.5 892.5,2106.5C 892.5,1421.83 892.5,737.167 892.5,52.5 Z"/></g>
<g><path style="opacity:1" fill="#fefffe" d="M 2031.5,1912.5 C 2028.78,1911.09 2025.78,1910.42 2022.5,1910.5C 1958.66,1895.81 1913.83,1858.48 1888,1798.5C 1865.91,1735.06 1873.24,1675.4 1910,1619.5C 1946.13,1574.29 1992.46,1549.29 2049,1544.5C 2084.64,1542.07 2119.47,1548.23 2153.5,1563C 2219.83,1597.76 2254.17,1652.92 2256.5,1728.5C 2255.45,1796.12 2227.12,1848.62 2171.5,1886C 2127.36,1911.31 2081.2,1919.81 2033,1911.5C 2032.62,1912.06 2032.12,1912.39 2031.5,1912.5 Z"/></g>
<g><path style="opacity:1" fill="#f17a9f" d="M 1264.5,1557.5 C 1272.99,1556.83 1281.66,1556.5 1290.5,1556.5C 1299.53,1556.5 1308.19,1557.17 1316.5,1558.5C 1299.24,1557.51 1281.91,1557.18 1264.5,1557.5 Z"/></g>
<g><path style="opacity:1" fill="#f17a9f" d="M 1755.5,1557.5 C 1781.34,1556.17 1807.34,1556.17 1833.5,1557.5C 1833.38,1558.11 1833.04,1558.44 1832.5,1558.5C 1807.01,1557.5 1781.34,1557.17 1755.5,1557.5 Z"/></g>
<g><path style="opacity:1" fill="#fffefe" d="M 1264.5,1557.5 C 1281.91,1557.18 1299.24,1557.51 1316.5,1558.5C 1369.42,1672.35 1422.42,1786.35 1475.5,1900.5C 1451.17,1901.67 1426.84,1901.83 1402.5,1901C 1390.44,1881.59 1375.77,1864.25 1358.5,1849C 1336.61,1832.59 1311.95,1823.26 1284.5,1821C 1261.66,1819.08 1237.83,1820.25 1213,1824.5C 1201.56,1849.72 1190.39,1875.05 1179.5,1900.5C 1154.84,1901.5 1130.18,1901.83 1105.5,1901.5C 1157.92,1786.66 1210.92,1671.99 1264.5,1557.5 Z"/></g>
<g><path style="opacity:1" fill="#fefffe" d="M 1755.5,1557.5 C 1781.34,1557.17 1807.01,1557.5 1832.5,1558.5C 1780.18,1672.79 1727.68,1786.79 1675,1900.5C 1657.9,1901.82 1640.73,1901.82 1623.5,1900.5C 1571.37,1786.4 1519.37,1672.23 1467.5,1558C 1494.41,1557.17 1521.24,1557.34 1548,1558.5C 1581.86,1637.27 1616.2,1716.27 1651,1795.5C 1686.08,1716.33 1720.92,1637 1755.5,1557.5 Z"/></g>
<g><path style="opacity:1" fill="#fefffe" d="M 2602.5,1774.5 C 2602.56,1775.04 2602.89,1775.38 2603.5,1775.5C 2604.5,1702.84 2604.83,1630.17 2604.5,1557.5C 2628.32,1557.01 2651.98,1557.51 2675.5,1559C 2674.17,1673 2674.17,1787 2675.5,1901C 2657.17,1901.67 2638.83,1901.67 2620.5,1901C 2558.29,1828.46 2496.46,1755.63 2435,1682.5C 2434.67,1755.17 2434.33,1827.83 2434,1900.5C 2410.67,1901.83 2387.33,1901.83 2364,1900.5C 2363.33,1786.17 2363.33,1671.83 2364,1557.5C 2381.74,1557.41 2399.91,1557.58 2418.5,1558C 2480.01,1630.01 2541.35,1702.18 2602.5,1774.5 Z"/></g>
<g><path style="opacity:1" fill="#f17a9f" d="M 2604.5,1557.5 C 2604.83,1630.17 2604.5,1702.84 2603.5,1775.5C 2602.89,1775.38 2602.56,1775.04 2602.5,1774.5C 2603.17,1702.17 2603.83,1629.83 2604.5,1557.5 Z"/></g>
<g><path style="opacity:1" fill="#e5044b" d="M 2052.5,1607.5 C 2077.62,1605.27 2101.62,1610.1 2124.5,1622C 2150.38,1637.22 2168.21,1659.05 2178,1687.5C 2187.24,1718.34 2185.9,1749.67 2174,1781.5C 2154.86,1821.94 2123.36,1845.11 2079.5,1851C 2031.02,1855.06 1993.18,1836.89 1966,1796.5C 1945.4,1757.89 1942.74,1718.22 1958,1677.5C 1974.75,1640.67 2002.42,1618.34 2041,1610.5C 2044.89,1609.85 2048.73,1608.85 2052.5,1607.5 Z"/></g>
<g><path style="opacity:1" fill="#e50e4d" d="M 1289.5,1648.5 C 1291.69,1649.82 1293.19,1651.82 1294,1654.5C 1313.08,1697.24 1332.24,1739.91 1351.5,1782.5C 1351.17,1782.83 1350.83,1783.17 1350.5,1783.5C 1332.01,1772.62 1312.01,1766.45 1290.5,1765C 1272.84,1764.68 1255.51,1764.51 1238.5,1764.5C 1255.5,1725.84 1272.5,1687.17 1289.5,1648.5 Z"/></g>
<g><path style="opacity:1" fill="#f17a9f" d="M 2022.5,1910.5 C 2025.78,1910.42 2028.78,1911.09 2031.5,1912.5C 2028.22,1912.58 2025.22,1911.91 2022.5,1910.5 Z"/></g>
</svg>
